<svg xmlns="http://www.w3.org/2000/svg" xmlns:xlink="http://www.w3.org/1999/xlink" width="1024" zoomAndPan="magnify" viewBox="0 0 768 767.999994" height="1024" preserveAspectRatio="xMidYMid meet" version="1.0"><path fill="#f75e3e" d="M 384 0 C 172.261719 0 0 172.261719 0 384 C 0 595.738281 172.261719 768 384 768 C 595.738281 768 768 595.738281 768 384 C 768 172.261719 595.738281 0 384 0 Z M 384 716.800781 C 200.492188 716.800781 51.199219 567.507812 51.199219 384 C 51.199219 200.492188 200.492188 51.199219 384 51.199219 C 567.507812 51.199219 716.800781 200.492188 716.800781 384 C 716.800781 567.507812 567.507812 716.800781 384 716.800781 Z M 384 716.800781 " fill-opacity="1" fill-rule="nonzero"/><path fill="#f75e3e" d="M 344.460938 213.164062 C 334.464844 203.175781 318.257812 203.175781 308.257812 213.164062 C 298.257812 223.160156 298.257812 239.371094 308.257812 249.371094 L 442.886719 384 L 308.257812 518.636719 C 298.257812 528.632812 298.257812 544.84375 308.257812 554.835938 C 313.253906 559.832031 319.808594 562.335938 326.363281 562.335938 C 332.914062 562.335938 339.460938 559.832031 344.46875 554.835938 L 497.195312 402.097656 C 507.195312 392.101562 507.195312 375.898438 497.195312 365.894531 Z M 344.460938 213.164062 " fill-opacity="1" fill-rule="nonzero"/></svg>